{
    "header": {
        "formatType": 0, 
        "ticksPerBeat": 480, 
        "trackCount": 1
    }, 
    "tracks": [
        [
            {
                "deltaTime": 0, 
                "subtype": "trackName", 
                "text": "Broken Beat Kit 01", 
                "type": "meta"
            }, 
            {
                "deltaTime": 0, 
                "subtype": "instrumentName", 
                "text": "Clap", 
                "type": "meta"
            }, 
            {
                "deltaTime": 0, 
                "denominator": 4, 
                "metronome": 24, 
                "numerator": 4, 
                "subtype": "timeSignature", 
                "thirtyseconds": 8, 
                "type": "meta"
            }, 
            {
                "deltaTime": 0, 
                "key": 0, 
                "scale": 0, 
                "subtype": "keySignature", 
                "type": "meta"
            }, 
            {
                "deltaTime": 0, 
                "frame": 0, 
                "frameRate": 25, 
                "hour": 1, 
                "min": 0, 
                "sec": 0, 
                "subframe": 0, 
                "subtype": "smpteOffset", 
                "type": "meta"
            }, 
            {
                "deltaTime": 0, 
                "microsecondsPerBeat": 428571, 
                "subtype": "setTempo", 
                "type": "meta"
            }, 
            {
                "channel": 0, 
                "deltaTime": 4800, 
                "noteNumber": 39, 
                "subtype": "noteOn", 
                "type": "channel", 
                "velocity": 127
            }, 
            {
                "channel": 0, 
                "deltaTime": 468, 
                "noteNumber": 39, 
                "subtype": "noteOff", 
                "type": "channel", 
                "velocity": 0
            }, 
            {
                "channel": 0, 
                "deltaTime": 1932, 
                "noteNumber": 39, 
                "subtype": "noteOn", 
                "type": "channel", 
                "velocity": 122
            }, 
            {
                "channel": 0, 
                "deltaTime": 480, 
                "noteNumber": 39, 
                "subtype": "noteOn", 
                "type": "channel", 
                "velocity": 127
            }, 
            {
                "channel": 0, 
                "deltaTime": 20, 
                "noteNumber": 39, 
                "subtype": "noteOff", 
                "type": "channel", 
                "velocity": 0
            }, 
            {
                "channel": 0, 
                "deltaTime": 480, 
                "noteNumber": 39, 
                "subtype": "noteOff", 
                "type": "channel", 
                "velocity": 0
            }, 
            {
                "channel": 0, 
                "deltaTime": 1900, 
                "noteNumber": 39, 
                "subtype": "noteOn", 
                "type": "channel", 
                "velocity": 122
            }, 
            {
                "channel": 0, 
                "deltaTime": 500, 
                "noteNumber": 39, 
                "subtype": "noteOff", 
                "type": "channel", 
                "velocity": 0
            }, 
            {
                "channel": 0, 
                "deltaTime": 220, 
                "noteNumber": 39, 
                "subtype": "noteOn", 
                "type": "channel", 
                "velocity": 122
            }, 
            {
                "channel": 0, 
                "deltaTime": 240, 
                "noteNumber": 39, 
                "subtype": "noteOn", 
                "type": "channel", 
                "velocity": 127
            }, 
            {
                "channel": 0, 
                "deltaTime": 20, 
                "noteNumber": 39, 
                "subtype": "noteOff", 
                "type": "channel", 
                "velocity": 0
            }, 
            {
                "channel": 0, 
                "deltaTime": 448, 
                "noteNumber": 39, 
                "subtype": "noteOff", 
                "type": "channel", 
                "velocity": 0
            }, 
            {
                "channel": 0, 
                "deltaTime": 972, 
                "noteNumber": 39, 
                "subtype": "noteOn", 
                "type": "channel", 
                "velocity": 120
            }, 
            {
                "channel": 0, 
                "deltaTime": 348, 
                "noteNumber": 39, 
                "subtype": "noteOff", 
                "type": "channel", 
                "velocity": 0
            }, 
            {
                "channel": 0, 
                "deltaTime": 12, 
                "noteNumber": 39, 
                "subtype": "noteOn", 
                "type": "channel", 
                "velocity": 126
            }, 
            {
                "channel": 0, 
                "deltaTime": 248, 
                "noteNumber": 39, 
                "subtype": "noteOff", 
                "type": "channel", 
                "velocity": 0
            }, 
            {
                "channel": 0, 
                "deltaTime": 112, 
                "noteNumber": 39, 
                "subtype": "noteOn", 
                "type": "channel", 
                "velocity": 127
            }, 
            {
                "channel": 0, 
                "deltaTime": 228, 
                "noteNumber": 39, 
                "subtype": "noteOff", 
                "type": "channel", 
                "velocity": 0
            }, 
            {
                "channel": 0, 
                "deltaTime": 1932, 
                "noteNumber": 39, 
                "subtype": "noteOn", 
                "type": "channel", 
                "velocity": 127
            }, 
            {
                "channel": 0, 
                "deltaTime": 500, 
                "noteNumber": 39, 
                "subtype": "noteOff", 
                "type": "channel", 
                "velocity": 0
            }, 
            {
                "channel": 0, 
                "deltaTime": 1420, 
                "noteNumber": 39, 
                "subtype": "noteOn", 
                "type": "channel", 
                "velocity": 127
            }, 
            {
                "channel": 0, 
                "deltaTime": 993, 
                "noteNumber": 39, 
                "subtype": "noteOff", 
                "type": "channel", 
                "velocity": 0
            }, 
            {
                "channel": 0, 
                "deltaTime": 1407, 
                "noteNumber": 39, 
                "subtype": "noteOn", 
                "type": "channel", 
                "velocity": 112
            }, 
            {
                "channel": 0, 
                "deltaTime": 228, 
                "noteNumber": 39, 
                "subtype": "noteOff", 
                "type": "channel", 
                "velocity": 0
            }, 
            {
                "channel": 0, 
                "deltaTime": 12, 
                "noteNumber": 39, 
                "subtype": "noteOn", 
                "type": "channel", 
                "velocity": 127
            }, 
            {
                "channel": 0, 
                "deltaTime": 228, 
                "noteNumber": 39, 
                "subtype": "noteOff", 
                "type": "channel", 
                "velocity": 0
            }, 
            {
                "channel": 0, 
                "deltaTime": 12, 
                "noteNumber": 39, 
                "subtype": "noteOn", 
                "type": "channel", 
                "velocity": 115
            }, 
            {
                "channel": 0, 
                "deltaTime": 468, 
                "noteNumber": 39, 
                "subtype": "noteOff", 
                "type": "channel", 
                "velocity": 0
            }, 
            {
                "channel": 0, 
                "deltaTime": 252, 
                "noteNumber": 39, 
                "subtype": "noteOn", 
                "type": "channel", 
                "velocity": 127
            }, 
            {
                "channel": 0, 
                "deltaTime": 753, 
                "noteNumber": 39, 
                "subtype": "noteOff", 
                "type": "channel", 
                "velocity": 0
            }, 
            {
                "channel": 0, 
                "deltaTime": 2007, 
                "noteNumber": 39, 
                "subtype": "noteOn", 
                "type": "channel", 
                "velocity": 115
            }, 
            {
                "channel": 0, 
                "deltaTime": 468, 
                "noteNumber": 39, 
                "subtype": "noteOff", 
                "type": "channel", 
                "velocity": 0
            }, 
            {
                "channel": 0, 
                "deltaTime": 852, 
                "noteNumber": 39, 
                "subtype": "noteOn", 
                "type": "channel", 
                "velocity": 127
            }, 
            {
                "channel": 0, 
                "deltaTime": 468, 
                "noteNumber": 39, 
                "subtype": "noteOff", 
                "type": "channel", 
                "velocity": 0
            }, 
            {
                "channel": 0, 
                "deltaTime": 1932, 
                "noteNumber": 39, 
                "subtype": "noteOn", 
                "type": "channel", 
                "velocity": 122
            }, 
            {
                "channel": 0, 
                "deltaTime": 480, 
                "noteNumber": 39, 
                "subtype": "noteOn", 
                "type": "channel", 
                "velocity": 127
            }, 
            {
                "channel": 0, 
                "deltaTime": 20, 
                "noteNumber": 39, 
                "subtype": "noteOff", 
                "type": "channel", 
                "velocity": 0
            }, 
            {
                "channel": 0, 
                "deltaTime": 480, 
                "noteNumber": 39, 
                "subtype": "noteOff", 
                "type": "channel", 
                "velocity": 0
            }, 
            {
                "channel": 0, 
                "deltaTime": 1900, 
                "noteNumber": 39, 
                "subtype": "noteOn", 
                "type": "channel", 
                "velocity": 122
            }, 
            {
                "channel": 0, 
                "deltaTime": 500, 
                "noteNumber": 39, 
                "subtype": "noteOff", 
                "type": "channel", 
                "velocity": 0
            }, 
            {
                "channel": 0, 
                "deltaTime": 220, 
                "noteNumber": 39, 
                "subtype": "noteOn", 
                "type": "channel", 
                "velocity": 122
            }, 
            {
                "channel": 0, 
                "deltaTime": 240, 
                "noteNumber": 39, 
                "subtype": "noteOn", 
                "type": "channel", 
                "velocity": 127
            }, 
            {
                "channel": 0, 
                "deltaTime": 20, 
                "noteNumber": 39, 
                "subtype": "noteOff", 
                "type": "channel", 
                "velocity": 0
            }, 
            {
                "channel": 0, 
                "deltaTime": 448, 
                "noteNumber": 39, 
                "subtype": "noteOff", 
                "type": "channel", 
                "velocity": 0
            }, 
            {
                "channel": 0, 
                "deltaTime": 972, 
                "noteNumber": 39, 
                "subtype": "noteOn", 
                "type": "channel", 
                "velocity": 120
            }, 
            {
                "channel": 0, 
                "deltaTime": 348, 
                "noteNumber": 39, 
                "subtype": "noteOff", 
                "type": "channel", 
                "velocity": 0
            }, 
            {
                "channel": 0, 
                "deltaTime": 12, 
                "noteNumber": 39, 
                "subtype": "noteOn", 
                "type": "channel", 
                "velocity": 126
            }, 
            {
                "channel": 0, 
                "deltaTime": 248, 
                "noteNumber": 39, 
                "subtype": "noteOff", 
                "type": "channel", 
                "velocity": 0
            }, 
            {
                "channel": 0, 
                "deltaTime": 112, 
                "noteNumber": 39, 
                "subtype": "noteOn", 
                "type": "channel", 
                "velocity": 127
            }, 
            {
                "channel": 0, 
                "deltaTime": 228, 
                "noteNumber": 39, 
                "subtype": "noteOff", 
                "type": "channel", 
                "velocity": 0
            }, 
            {
                "channel": 0, 
                "deltaTime": 1932, 
                "noteNumber": 39, 
                "subtype": "noteOn", 
                "type": "channel", 
                "velocity": 127
            }, 
            {
                "channel": 0, 
                "deltaTime": 500, 
                "noteNumber": 39, 
                "subtype": "noteOff", 
                "type": "channel", 
                "velocity": 0
            }, 
            {
                "channel": 0, 
                "deltaTime": 1660, 
                "noteNumber": 39, 
                "subtype": "noteOn", 
                "type": "channel", 
                "velocity": 127
            }, 
            {
                "channel": 0, 
                "deltaTime": 153, 
                "noteNumber": 39, 
                "subtype": "noteOff", 
                "type": "channel", 
                "velocity": 0
            }, 
            {
                "channel": 0, 
                "deltaTime": 87, 
                "noteNumber": 39, 
                "subtype": "noteOn", 
                "type": "channel", 
                "velocity": 127
            }, 
            {
                "channel": 0, 
                "deltaTime": 120, 
                "noteNumber": 39, 
                "subtype": "noteOn", 
                "type": "channel", 
                "velocity": 112
            }, 
            {
                "channel": 0, 
                "deltaTime": 33, 
                "noteNumber": 39, 
                "subtype": "noteOff", 
                "type": "channel", 
                "velocity": 0
            }, 
            {
                "channel": 0, 
                "deltaTime": 75, 
                "noteNumber": 39, 
                "subtype": "noteOff", 
                "type": "channel", 
                "velocity": 0
            }, 
            {
                "channel": 0, 
                "deltaTime": 132, 
                "noteNumber": 39, 
                "subtype": "noteOn", 
                "type": "channel", 
                "velocity": 127
            }, 
            {
                "channel": 0, 
                "deltaTime": 108, 
                "noteNumber": 39, 
                "subtype": "noteOff", 
                "type": "channel", 
                "velocity": 0
            }, 
            {
                "channel": 0, 
                "deltaTime": 1452, 
                "noteNumber": 39, 
                "subtype": "noteOn", 
                "type": "channel", 
                "velocity": 112
            }, 
            {
                "channel": 0, 
                "deltaTime": 228, 
                "noteNumber": 39, 
                "subtype": "noteOff", 
                "type": "channel", 
                "velocity": 0
            }, 
            {
                "channel": 0, 
                "deltaTime": 12, 
                "noteNumber": 39, 
                "subtype": "noteOn", 
                "type": "channel", 
                "velocity": 127
            }, 
            {
                "channel": 0, 
                "deltaTime": 228, 
                "noteNumber": 39, 
                "subtype": "noteOff", 
                "type": "channel", 
                "velocity": 0
            }, 
            {
                "channel": 0, 
                "deltaTime": 12, 
                "noteNumber": 39, 
                "subtype": "noteOn", 
                "type": "channel", 
                "velocity": 115
            }, 
            {
                "channel": 0, 
                "deltaTime": 468, 
                "noteNumber": 39, 
                "subtype": "noteOff", 
                "type": "channel", 
                "velocity": 0
            }, 
            {
                "channel": 0, 
                "deltaTime": 252, 
                "noteNumber": 39, 
                "subtype": "noteOn", 
                "type": "channel", 
                "velocity": 127
            }, 
            {
                "channel": 0, 
                "deltaTime": 753, 
                "noteNumber": 39, 
                "subtype": "noteOff", 
                "type": "channel", 
                "velocity": 0
            }, 
            {
                "channel": 0, 
                "deltaTime": 927, 
                "noteNumber": 39, 
                "subtype": "noteOn", 
                "type": "channel", 
                "velocity": 127
            }, 
            {
                "channel": 0, 
                "deltaTime": 228, 
                "noteNumber": 39, 
                "subtype": "noteOff", 
                "type": "channel", 
                "velocity": 0
            }, 
            {
                "channel": 0, 
                "deltaTime": 852, 
                "noteNumber": 39, 
                "subtype": "noteOn", 
                "type": "channel", 
                "velocity": 115
            }, 
            {
                "channel": 0, 
                "deltaTime": 348, 
                "noteNumber": 39, 
                "subtype": "noteOff", 
                "type": "channel", 
                "velocity": 0
            }, 
            {
                "channel": 0, 
                "deltaTime": 12, 
                "noteNumber": 39, 
                "subtype": "noteOn", 
                "type": "channel", 
                "velocity": 127
            }, 
            {
                "channel": 0, 
                "deltaTime": 468, 
                "noteNumber": 39, 
                "subtype": "noteOff", 
                "type": "channel", 
                "velocity": 0
            }, 
            {
                "channel": 0, 
                "deltaTime": 1932, 
                "noteNumber": 39, 
                "subtype": "noteOn", 
                "type": "channel", 
                "velocity": 127
            }, 
            {
                "channel": 0, 
                "deltaTime": 480, 
                "noteNumber": 39, 
                "subtype": "noteOn", 
                "type": "channel", 
                "velocity": 127
            }, 
            {
                "channel": 0, 
                "deltaTime": 20, 
                "noteNumber": 39, 
                "subtype": "noteOff", 
                "type": "channel", 
                "velocity": 0
            }, 
            {
                "channel": 0, 
                "deltaTime": 220, 
                "noteNumber": 39, 
                "subtype": "noteOn", 
                "type": "channel", 
                "velocity": 112
            }, 
            {
                "channel": 0, 
                "deltaTime": 20, 
                "noteNumber": 39, 
                "subtype": "noteOff", 
                "type": "channel", 
                "velocity": 0
            }, 
            {
                "channel": 0, 
                "deltaTime": 208, 
                "noteNumber": 39, 
                "subtype": "noteOff", 
                "type": "channel", 
                "velocity": 0
            }, 
            {
                "channel": 0, 
                "deltaTime": 12, 
                "noteNumber": 39, 
                "subtype": "noteOn", 
                "type": "channel", 
                "velocity": 122
            }, 
            {
                "channel": 0, 
                "deltaTime": 240, 
                "noteNumber": 39, 
                "subtype": "noteOn", 
                "type": "channel", 
                "velocity": 125
            }, 
            {
                "channel": 0, 
                "deltaTime": 20, 
                "noteNumber": 39, 
                "subtype": "noteOff", 
                "type": "channel", 
                "velocity": 0
            }, 
            {
                "channel": 0, 
                "deltaTime": 100, 
                "noteNumber": 39, 
                "subtype": "noteOn", 
                "type": "channel", 
                "velocity": 127
            }, 
            {
                "channel": 0, 
                "deltaTime": 20, 
                "noteNumber": 39, 
                "subtype": "noteOff", 
                "type": "channel", 
                "velocity": 0
            }, 
            {
                "channel": 0, 
                "deltaTime": 120, 
                "noteNumber": 39, 
                "subtype": "noteOff", 
                "type": "channel", 
                "velocity": 0
            }, 
            {
                "channel": 0, 
                "deltaTime": 1420, 
                "noteNumber": 39, 
                "subtype": "noteOn", 
                "type": "channel", 
                "velocity": 122
            }, 
            {
                "channel": 0, 
                "deltaTime": 140, 
                "noteNumber": 39, 
                "subtype": "noteOff", 
                "type": "channel", 
                "velocity": 0
            }, 
            {
                "channel": 0, 
                "deltaTime": 100, 
                "noteNumber": 39, 
                "subtype": "noteOn", 
                "type": "channel", 
                "velocity": 125
            }, 
            {
                "channel": 0, 
                "deltaTime": 120, 
                "noteNumber": 39, 
                "subtype": "noteOn", 
                "type": "channel", 
                "velocity": 127
            }, 
            {
                "channel": 0, 
                "deltaTime": 20, 
                "noteNumber": 39, 
                "subtype": "noteOff", 
                "type": "channel", 
                "velocity": 0
            }, 
            {
                "channel": 0, 
                "deltaTime": 120, 
                "noteNumber": 39, 
                "subtype": "noteOff", 
                "type": "channel", 
                "velocity": 0
            }, 
            {
                "channel": 0, 
                "deltaTime": 220, 
                "noteNumber": 39, 
                "subtype": "noteOn", 
                "type": "channel", 
                "velocity": 122
            }, 
            {
                "channel": 0, 
                "deltaTime": 240, 
                "noteNumber": 39, 
                "subtype": "noteOn", 
                "type": "channel", 
                "velocity": 127
            }, 
            {
                "channel": 0, 
                "deltaTime": 20, 
                "noteNumber": 39, 
                "subtype": "noteOff", 
                "type": "channel", 
                "velocity": 0
            }, 
            {
                "channel": 0, 
                "deltaTime": 448, 
                "noteNumber": 39, 
                "subtype": "noteOff", 
                "type": "channel", 
                "velocity": 0
            }, 
            {
                "channel": 0, 
                "deltaTime": 252, 
                "noteNumber": 39, 
                "subtype": "noteOn", 
                "type": "channel", 
                "velocity": 122
            }, 
            {
                "channel": 0, 
                "deltaTime": 140, 
                "noteNumber": 39, 
                "subtype": "noteOff", 
                "type": "channel", 
                "velocity": 0
            }, 
            {
                "channel": 0, 
                "deltaTime": 100, 
                "noteNumber": 39, 
                "subtype": "noteOn", 
                "type": "channel", 
                "velocity": 122
            }, 
            {
                "channel": 0, 
                "deltaTime": 120, 
                "noteNumber": 39, 
                "subtype": "noteOn", 
                "type": "channel", 
                "velocity": 97
            }, 
            {
                "channel": 0, 
                "deltaTime": 20, 
                "noteNumber": 39, 
                "subtype": "noteOff", 
                "type": "channel", 
                "velocity": 0
            }, 
            {
                "channel": 0, 
                "deltaTime": 100, 
                "noteNumber": 39, 
                "subtype": "noteOn", 
                "type": "channel", 
                "velocity": 127
            }, 
            {
                "channel": 0, 
                "deltaTime": 20, 
                "noteNumber": 39, 
                "subtype": "noteOff", 
                "type": "channel", 
                "velocity": 0
            }, 
            {
                "channel": 0, 
                "deltaTime": 120, 
                "noteNumber": 39, 
                "subtype": "noteOff", 
                "type": "channel", 
                "velocity": 0
            }, 
            {
                "channel": 0, 
                "deltaTime": 100, 
                "noteNumber": 39, 
                "subtype": "noteOn", 
                "type": "channel", 
                "velocity": 120
            }, 
            {
                "channel": 0, 
                "deltaTime": 348, 
                "noteNumber": 39, 
                "subtype": "noteOff", 
                "type": "channel", 
                "velocity": 0
            }, 
            {
                "channel": 0, 
                "deltaTime": 12, 
                "noteNumber": 39, 
                "subtype": "noteOn", 
                "type": "channel", 
                "velocity": 126
            }, 
            {
                "channel": 0, 
                "deltaTime": 248, 
                "noteNumber": 39, 
                "subtype": "noteOff", 
                "type": "channel", 
                "velocity": 0
            }, 
            {
                "channel": 0, 
                "deltaTime": 112, 
                "noteNumber": 39, 
                "subtype": "noteOn", 
                "type": "channel", 
                "velocity": 127
            }, 
            {
                "channel": 0, 
                "deltaTime": 228, 
                "noteNumber": 39, 
                "subtype": "noteOff", 
                "type": "channel", 
                "velocity": 0
            }, 
            {
                "channel": 0, 
                "deltaTime": 492, 
                "noteNumber": 39, 
                "subtype": "noteOn", 
                "type": "channel", 
                "velocity": 125
            }, 
            {
                "channel": 0, 
                "deltaTime": 120, 
                "noteNumber": 39, 
                "subtype": "noteOn", 
                "type": "channel", 
                "velocity": 127
            }, 
            {
                "channel": 0, 
                "deltaTime": 20, 
                "noteNumber": 39, 
                "subtype": "noteOff", 
                "type": "channel", 
                "velocity": 0
            }, 
            {
                "channel": 0, 
                "deltaTime": 120, 
                "noteNumber": 39, 
                "subtype": "noteOff", 
                "type": "channel", 
                "velocity": 0
            }, 
            {
                "channel": 0, 
                "deltaTime": 100, 
                "noteNumber": 39, 
                "subtype": "noteOn", 
                "type": "channel", 
                "velocity": 122
            }, 
            {
                "channel": 0, 
                "deltaTime": 140, 
                "noteNumber": 39, 
                "subtype": "noteOff", 
                "type": "channel", 
                "velocity": 0
            }, 
            {
                "channel": 0, 
                "deltaTime": 460, 
                "noteNumber": 39, 
                "subtype": "noteOn", 
                "type": "channel", 
                "velocity": 125
            }, 
            {
                "channel": 0, 
                "deltaTime": 120, 
                "noteNumber": 39, 
                "subtype": "noteOn", 
                "type": "channel", 
                "velocity": 127
            }, 
            {
                "channel": 0, 
                "deltaTime": 20, 
                "noteNumber": 39, 
                "subtype": "noteOff", 
                "type": "channel", 
                "velocity": 0
            }, 
            {
                "channel": 0, 
                "deltaTime": 120, 
                "noteNumber": 39, 
                "subtype": "noteOff", 
                "type": "channel", 
                "velocity": 0
            }, 
            {
                "channel": 0, 
                "deltaTime": 220, 
                "noteNumber": 39, 
                "subtype": "noteOn", 
                "type": "channel", 
                "velocity": 110
            }, 
            {
                "channel": 0, 
                "deltaTime": 240, 
                "noteNumber": 39, 
                "subtype": "noteOff", 
                "type": "channel", 
                "velocity": 0
            }, 
            {
                "channel": 0, 
                "deltaTime": 0, 
                "noteNumber": 39, 
                "subtype": "noteOn", 
                "type": "channel", 
                "velocity": 127
            }, 
            {
                "channel": 0, 
                "deltaTime": 240, 
                "noteNumber": 39, 
                "subtype": "noteOff", 
                "type": "channel", 
                "velocity": 0
            }, 
            {
                "channel": 0, 
                "deltaTime": 240, 
                "noteNumber": 39, 
                "subtype": "noteOn", 
                "type": "channel", 
                "velocity": 125
            }, 
            {
                "channel": 0, 
                "deltaTime": 120, 
                "noteNumber": 39, 
                "subtype": "noteOn", 
                "type": "channel", 
                "velocity": 127
            }, 
            {
                "channel": 0, 
                "deltaTime": 20, 
                "noteNumber": 39, 
                "subtype": "noteOff", 
                "type": "channel", 
                "velocity": 0
            }, 
            {
                "channel": 0, 
                "deltaTime": 120, 
                "noteNumber": 39, 
                "subtype": "noteOff", 
                "type": "channel", 
                "velocity": 0
            }, 
            {
                "channel": 0, 
                "deltaTime": 940, 
                "noteNumber": 39, 
                "subtype": "noteOn", 
                "type": "channel", 
                "velocity": 127
            }, 
            {
                "channel": 0, 
                "deltaTime": 480, 
                "noteNumber": 39, 
                "subtype": "noteOn", 
                "type": "channel", 
                "velocity": 122
            }, 
            {
                "channel": 0, 
                "deltaTime": 33, 
                "noteNumber": 39, 
                "subtype": "noteOff", 
                "type": "channel", 
                "velocity": 0
            }, 
            {
                "channel": 0, 
                "deltaTime": 107, 
                "noteNumber": 39, 
                "subtype": "noteOff", 
                "type": "channel", 
                "velocity": 0
            }, 
            {
                "channel": 0, 
                "deltaTime": 100, 
                "noteNumber": 39, 
                "subtype": "noteOn", 
                "type": "channel", 
                "velocity": 125
            }, 
            {
                "channel": 0, 
                "deltaTime": 120, 
                "noteNumber": 39, 
                "subtype": "noteOn", 
                "type": "channel", 
                "velocity": 127
            }, 
            {
                "channel": 0, 
                "deltaTime": 20, 
                "noteNumber": 39, 
                "subtype": "noteOff", 
                "type": "channel", 
                "velocity": 0
            }, 
            {
                "channel": 0, 
                "deltaTime": 120, 
                "noteNumber": 39, 
                "subtype": "noteOff", 
                "type": "channel", 
                "velocity": 0
            }, 
            {
                "channel": 0, 
                "deltaTime": 1420, 
                "noteNumber": 39, 
                "subtype": "noteOn", 
                "type": "channel", 
                "velocity": 112
            }, 
            {
                "channel": 0, 
                "deltaTime": 228, 
                "noteNumber": 39, 
                "subtype": "noteOff", 
                "type": "channel", 
                "velocity": 0
            }, 
            {
                "channel": 0, 
                "deltaTime": 12, 
                "noteNumber": 39, 
                "subtype": "noteOn", 
                "type": "channel", 
                "velocity": 127
            }, 
            {
                "channel": 0, 
                "deltaTime": 228, 
                "noteNumber": 39, 
                "subtype": "noteOff", 
                "type": "channel", 
                "velocity": 0
            }, 
            {
                "channel": 0, 
                "deltaTime": 12, 
                "noteNumber": 39, 
                "subtype": "noteOn", 
                "type": "channel", 
                "velocity": 115
            }, 
            {
                "channel": 0, 
                "deltaTime": 468, 
                "noteNumber": 39, 
                "subtype": "noteOff", 
                "type": "channel", 
                "velocity": 0
            }, 
            {
                "channel": 0, 
                "deltaTime": 252, 
                "noteNumber": 39, 
                "subtype": "noteOn", 
                "type": "channel", 
                "velocity": 127
            }, 
            {
                "channel": 0, 
                "deltaTime": 753, 
                "noteNumber": 39, 
                "subtype": "noteOff", 
                "type": "channel", 
                "velocity": 0
            }, 
            {
                "channel": 0, 
                "deltaTime": 207, 
                "noteNumber": 39, 
                "subtype": "noteOn", 
                "type": "channel", 
                "velocity": 125
            }, 
            {
                "channel": 0, 
                "deltaTime": 120, 
                "noteNumber": 39, 
                "subtype": "noteOn", 
                "type": "channel", 
                "velocity": 127
            }, 
            {
                "channel": 0, 
                "deltaTime": 20, 
                "noteNumber": 39, 
                "subtype": "noteOff", 
                "type": "channel", 
                "velocity": 0
            }, 
            {
                "channel": 0, 
                "deltaTime": 120, 
                "noteNumber": 39, 
                "subtype": "noteOff", 
                "type": "channel", 
                "velocity": 0
            }, 
            {
                "channel": 0, 
                "deltaTime": 1540, 
                "noteNumber": 39, 
                "subtype": "noteOn", 
                "type": "channel", 
                "velocity": 125
            }, 
            {
                "channel": 0, 
                "deltaTime": 348, 
                "noteNumber": 39, 
                "subtype": "noteOff", 
                "type": "channel", 
                "velocity": 0
            }, 
            {
                "channel": 0, 
                "deltaTime": 12, 
                "noteNumber": 39, 
                "subtype": "noteOn", 
                "type": "channel", 
                "velocity": 127
            }, 
            {
                "channel": 0, 
                "deltaTime": 468, 
                "noteNumber": 39, 
                "subtype": "noteOff", 
                "type": "channel", 
                "velocity": 0
            }, 
            {
                "channel": 0, 
                "deltaTime": 12, 
                "noteNumber": 39, 
                "subtype": "noteOn", 
                "type": "channel", 
                "velocity": 122
            }, 
            {
                "channel": 0, 
                "deltaTime": 140, 
                "noteNumber": 39, 
                "subtype": "noteOff", 
                "type": "channel", 
                "velocity": 0
            }, 
            {
                "channel": 0, 
                "deltaTime": 100, 
                "noteNumber": 39, 
                "subtype": "noteOn", 
                "type": "channel", 
                "velocity": 125
            }, 
            {
                "channel": 0, 
                "deltaTime": 120, 
                "noteNumber": 39, 
                "subtype": "noteOn", 
                "type": "channel", 
                "velocity": 127
            }, 
            {
                "channel": 0, 
                "deltaTime": 20, 
                "noteNumber": 39, 
                "subtype": "noteOff", 
                "type": "channel", 
                "velocity": 0
            }, 
            {
                "channel": 0, 
                "deltaTime": 120, 
                "noteNumber": 39, 
                "subtype": "noteOff", 
                "type": "channel", 
                "velocity": 0
            }, 
            {
                "channel": 0, 
                "deltaTime": 100, 
                "noteNumber": 39, 
                "subtype": "noteOn", 
                "type": "channel", 
                "velocity": 122
            }, 
            {
                "channel": 0, 
                "deltaTime": 120, 
                "noteNumber": 39, 
                "subtype": "noteOn", 
                "type": "channel", 
                "velocity": 125
            }, 
            {
                "channel": 0, 
                "deltaTime": 20, 
                "noteNumber": 39, 
                "subtype": "noteOff", 
                "type": "channel", 
                "velocity": 0
            }, 
            {
                "channel": 0, 
                "deltaTime": 100, 
                "noteNumber": 39, 
                "subtype": "noteOn", 
                "type": "channel", 
                "velocity": 127
            }, 
            {
                "channel": 0, 
                "deltaTime": 20, 
                "noteNumber": 39, 
                "subtype": "noteOff", 
                "type": "channel", 
                "velocity": 0
            }, 
            {
                "channel": 0, 
                "deltaTime": 100, 
                "noteNumber": 39, 
                "subtype": "noteOff", 
                "type": "channel", 
                "velocity": 0
            }, 
            {
                "channel": 0, 
                "deltaTime": 120, 
                "noteNumber": 39, 
                "subtype": "noteOn", 
                "type": "channel", 
                "velocity": 122
            }, 
            {
                "channel": 0, 
                "deltaTime": 120, 
                "noteNumber": 39, 
                "subtype": "noteOff", 
                "type": "channel", 
                "velocity": 0
            }, 
            {
                "channel": 0, 
                "deltaTime": 0, 
                "noteNumber": 39, 
                "subtype": "noteOn", 
                "type": "channel", 
                "velocity": 125
            }, 
            {
                "channel": 0, 
                "deltaTime": 120, 
                "noteNumber": 39, 
                "subtype": "noteOff", 
                "type": "channel", 
                "velocity": 0
            }, 
            {
                "channel": 0, 
                "deltaTime": 0, 
                "noteNumber": 39, 
                "subtype": "noteOn", 
                "type": "channel", 
                "velocity": 127
            }, 
            {
                "channel": 0, 
                "deltaTime": 140, 
                "noteNumber": 39, 
                "subtype": "noteOff", 
                "type": "channel", 
                "velocity": 0
            }, 
            {
                "channel": 0, 
                "deltaTime": 940, 
                "noteNumber": 39, 
                "subtype": "noteOn", 
                "type": "channel", 
                "velocity": 111
            }, 
            {
                "channel": 0, 
                "deltaTime": 953, 
                "noteNumber": 39, 
                "subtype": "noteOff", 
                "type": "channel", 
                "velocity": 0
            }, 
            {
                "channel": 0, 
                "deltaTime": 7, 
                "noteNumber": 39, 
                "subtype": "noteOn", 
                "type": "channel", 
                "velocity": 116
            }, 
            {
                "channel": 0, 
                "deltaTime": 946, 
                "noteNumber": 39, 
                "subtype": "noteOn", 
                "type": "channel", 
                "velocity": 123
            }, 
            {
                "channel": 0, 
                "deltaTime": 7, 
                "noteNumber": 39, 
                "subtype": "noteOff", 
                "type": "channel", 
                "velocity": 0
            }, 
            {
                "channel": 0, 
                "deltaTime": 247, 
                "noteNumber": 39, 
                "subtype": "noteOff", 
                "type": "channel", 
                "velocity": 0
            }, 
            {
                "channel": 0, 
                "deltaTime": 0, 
                "noteNumber": 39, 
                "subtype": "noteOn", 
                "type": "channel", 
                "velocity": 125
            }, 
            {
                "channel": 0, 
                "deltaTime": 233, 
                "noteNumber": 39, 
                "subtype": "noteOff", 
                "type": "channel", 
                "velocity": 0
            }, 
            {
                "channel": 0, 
                "deltaTime": 7, 
                "noteNumber": 39, 
                "subtype": "noteOn", 
                "type": "channel", 
                "velocity": 127
            }, 
            {
                "channel": 0, 
                "deltaTime": 120, 
                "noteNumber": 39, 
                "subtype": "noteOff", 
                "type": "channel", 
                "velocity": 0
            }, 
            {
                "channel": 0, 
                "deltaTime": 0, 
                "noteNumber": 39, 
                "subtype": "noteOn", 
                "type": "channel", 
                "velocity": 127
            }, 
            {
                "channel": 0, 
                "deltaTime": 120, 
                "noteNumber": 39, 
                "subtype": "noteOff", 
                "type": "channel", 
                "velocity": 0
            }, 
            {
                "channel": 0, 
                "deltaTime": 0, 
                "noteNumber": 39, 
                "subtype": "noteOn", 
                "type": "channel", 
                "velocity": 127
            }, 
            {
                "channel": 0, 
                "deltaTime": 120, 
                "noteNumber": 39, 
                "subtype": "noteOff", 
                "type": "channel", 
                "velocity": 0
            }, 
            {
                "channel": 0, 
                "deltaTime": 0, 
                "noteNumber": 39, 
                "subtype": "noteOn", 
                "type": "channel", 
                "velocity": 127
            }, 
            {
                "channel": 0, 
                "deltaTime": 140, 
                "noteNumber": 39, 
                "subtype": "noteOff", 
                "type": "channel", 
                "velocity": 0
            }, 
            {
                "channel": 0, 
                "deltaTime": 220, 
                "noteNumber": 39, 
                "subtype": "noteOn", 
                "type": "channel", 
                "velocity": 122
            }, 
            {
                "channel": 0, 
                "deltaTime": 240, 
                "noteNumber": 39, 
                "subtype": "noteOn", 
                "type": "channel", 
                "velocity": 127
            }, 
            {
                "channel": 0, 
                "deltaTime": 20, 
                "noteNumber": 39, 
                "subtype": "noteOff", 
                "type": "channel", 
                "velocity": 0
            }, 
            {
                "channel": 0, 
                "deltaTime": 448, 
                "noteNumber": 39, 
                "subtype": "noteOff", 
                "type": "channel", 
                "velocity": 0
            }, 
            {
                "channel": 0, 
                "deltaTime": 612, 
                "noteNumber": 39, 
                "subtype": "noteOn", 
                "type": "channel", 
                "velocity": 122
            }, 
            {
                "channel": 0, 
                "deltaTime": 120, 
                "noteNumber": 39, 
                "subtype": "noteOff", 
                "type": "channel", 
                "velocity": 0
            }, 
            {
                "channel": 0, 
                "deltaTime": 0, 
                "noteNumber": 39, 
                "subtype": "noteOn", 
                "type": "channel", 
                "velocity": 125
            }, 
            {
                "channel": 0, 
                "deltaTime": 120, 
                "noteNumber": 39, 
                "subtype": "noteOff", 
                "type": "channel", 
                "velocity": 0
            }, 
            {
                "channel": 0, 
                "deltaTime": 0, 
                "noteNumber": 39, 
                "subtype": "noteOn", 
                "type": "channel", 
                "velocity": 127
            }, 
            {
                "channel": 0, 
                "deltaTime": 120, 
                "noteNumber": 39, 
                "subtype": "noteOn", 
                "type": "channel", 
                "velocity": 120
            }, 
            {
                "channel": 0, 
                "deltaTime": 20, 
                "noteNumber": 39, 
                "subtype": "noteOff", 
                "type": "channel", 
                "velocity": 0
            }, 
            {
                "channel": 0, 
                "deltaTime": 328, 
                "noteNumber": 39, 
                "subtype": "noteOff", 
                "type": "channel", 
                "velocity": 0
            }, 
            {
                "channel": 0, 
                "deltaTime": 12, 
                "noteNumber": 39, 
                "subtype": "noteOn", 
                "type": "channel", 
                "velocity": 126
            }, 
            {
                "channel": 0, 
                "deltaTime": 248, 
                "noteNumber": 39, 
                "subtype": "noteOff", 
                "type": "channel", 
                "velocity": 0
            }, 
            {
                "channel": 0, 
                "deltaTime": 112, 
                "noteNumber": 39, 
                "subtype": "noteOn", 
                "type": "channel", 
                "velocity": 127
            }, 
            {
                "channel": 0, 
                "deltaTime": 228, 
                "noteNumber": 39, 
                "subtype": "noteOff", 
                "type": "channel", 
                "velocity": 0
            }, 
            {
                "channel": 0, 
                "deltaTime": 732, 
                "noteNumber": 39, 
                "subtype": "noteOn", 
                "type": "channel", 
                "velocity": 125
            }, 
            {
                "channel": 0, 
                "deltaTime": 120, 
                "noteNumber": 39, 
                "subtype": "noteOff", 
                "type": "channel", 
                "velocity": 0
            }, 
            {
                "channel": 0, 
                "deltaTime": 0, 
                "noteNumber": 39, 
                "subtype": "noteOn", 
                "type": "channel", 
                "velocity": 127
            }, 
            {
                "channel": 0, 
                "deltaTime": 140, 
                "noteNumber": 39, 
                "subtype": "noteOff", 
                "type": "channel", 
                "velocity": 0
            }, 
            {
                "channel": 0, 
                "deltaTime": 460, 
                "noteNumber": 39, 
                "subtype": "noteOn", 
                "type": "channel", 
                "velocity": 125
            }, 
            {
                "channel": 0, 
                "deltaTime": 120, 
                "noteNumber": 39, 
                "subtype": "noteOff", 
                "type": "channel", 
                "velocity": 0
            }, 
            {
                "channel": 0, 
                "deltaTime": 0, 
                "noteNumber": 39, 
                "subtype": "noteOn", 
                "type": "channel", 
                "velocity": 127
            }, 
            {
                "channel": 0, 
                "deltaTime": 140, 
                "noteNumber": 39, 
                "subtype": "noteOff", 
                "type": "channel", 
                "velocity": 0
            }, 
            {
                "channel": 0, 
                "deltaTime": 220, 
                "noteNumber": 39, 
                "subtype": "noteOn", 
                "type": "channel", 
                "velocity": 127
            }, 
            {
                "channel": 0, 
                "deltaTime": 500, 
                "noteNumber": 39, 
                "subtype": "noteOff", 
                "type": "channel", 
                "velocity": 0
            }, 
            {
                "channel": 0, 
                "deltaTime": 220, 
                "noteNumber": 39, 
                "subtype": "noteOn", 
                "type": "channel", 
                "velocity": 125
            }, 
            {
                "channel": 0, 
                "deltaTime": 120, 
                "noteNumber": 39, 
                "subtype": "noteOff", 
                "type": "channel", 
                "velocity": 0
            }, 
            {
                "channel": 0, 
                "deltaTime": 0, 
                "noteNumber": 39, 
                "subtype": "noteOn", 
                "type": "channel", 
                "velocity": 127
            }, 
            {
                "channel": 0, 
                "deltaTime": 140, 
                "noteNumber": 39, 
                "subtype": "noteOff", 
                "type": "channel", 
                "velocity": 0
            }, 
            {
                "channel": 0, 
                "deltaTime": 460, 
                "noteNumber": 39, 
                "subtype": "noteOn", 
                "type": "channel", 
                "velocity": 125
            }, 
            {
                "channel": 0, 
                "deltaTime": 120, 
                "noteNumber": 39, 
                "subtype": "noteOff", 
                "type": "channel", 
                "velocity": 0
            }, 
            {
                "channel": 0, 
                "deltaTime": 0, 
                "noteNumber": 39, 
                "subtype": "noteOn", 
                "type": "channel", 
                "velocity": 127
            }, 
            {
                "channel": 0, 
                "deltaTime": 140, 
                "noteNumber": 39, 
                "subtype": "noteOff", 
                "type": "channel", 
                "velocity": 0
            }, 
            {
                "channel": 0, 
                "deltaTime": 220, 
                "noteNumber": 39, 
                "subtype": "noteOn", 
                "type": "channel", 
                "velocity": 125
            }, 
            {
                "channel": 0, 
                "deltaTime": 120, 
                "noteNumber": 39, 
                "subtype": "noteOff", 
                "type": "channel", 
                "velocity": 0
            }, 
            {
                "channel": 0, 
                "deltaTime": 0, 
                "noteNumber": 39, 
                "subtype": "noteOn", 
                "type": "channel", 
                "velocity": 127
            }, 
            {
                "channel": 0, 
                "deltaTime": 140, 
                "noteNumber": 39, 
                "subtype": "noteOff", 
                "type": "channel", 
                "velocity": 0
            }, 
            {
                "channel": 0, 
                "deltaTime": 327, 
                "noteNumber": 39, 
                "subtype": "noteOn", 
                "type": "channel", 
                "velocity": 122
            }, 
            {
                "channel": 0, 
                "deltaTime": 120, 
                "noteNumber": 39, 
                "subtype": "noteOff", 
                "type": "channel", 
                "velocity": 0
            }, 
            {
                "channel": 0, 
                "deltaTime": 0, 
                "noteNumber": 39, 
                "subtype": "noteOn", 
                "type": "channel", 
                "velocity": 125
            }, 
            {
                "channel": 0, 
                "deltaTime": 120, 
                "noteNumber": 39, 
                "subtype": "noteOff", 
                "type": "channel", 
                "velocity": 0
            }, 
            {
                "channel": 0, 
                "deltaTime": 0, 
                "noteNumber": 39, 
                "subtype": "noteOn", 
                "type": "channel", 
                "velocity": 127
            }, 
            {
                "channel": 0, 
                "deltaTime": 140, 
                "noteNumber": 39, 
                "subtype": "noteOff", 
                "type": "channel", 
                "velocity": 0
            }, 
            {
                "channel": 0, 
                "deltaTime": 1433, 
                "noteNumber": 39, 
                "subtype": "noteOn", 
                "type": "channel", 
                "velocity": 112
            }, 
            {
                "channel": 0, 
                "deltaTime": 228, 
                "noteNumber": 39, 
                "subtype": "noteOff", 
                "type": "channel", 
                "velocity": 0
            }, 
            {
                "channel": 0, 
                "deltaTime": 12, 
                "noteNumber": 39, 
                "subtype": "noteOn", 
                "type": "channel", 
                "velocity": 127
            }, 
            {
                "channel": 0, 
                "deltaTime": 228, 
                "noteNumber": 39, 
                "subtype": "noteOff", 
                "type": "channel", 
                "velocity": 0
            }, 
            {
                "channel": 0, 
                "deltaTime": 12, 
                "noteNumber": 39, 
                "subtype": "noteOn", 
                "type": "channel", 
                "velocity": 115
            }, 
            {
                "channel": 0, 
                "deltaTime": 468, 
                "noteNumber": 39, 
                "subtype": "noteOff", 
                "type": "channel", 
                "velocity": 0
            }, 
            {
                "channel": 0, 
                "deltaTime": 252, 
                "noteNumber": 39, 
                "subtype": "noteOn", 
                "type": "channel", 
                "velocity": 127
            }, 
            {
                "channel": 0, 
                "deltaTime": 633, 
                "noteNumber": 39, 
                "subtype": "noteOff", 
                "type": "channel", 
                "velocity": 0
            }, 
            {
                "channel": 0, 
                "deltaTime": 87, 
                "noteNumber": 39, 
                "subtype": "noteOn", 
                "type": "channel", 
                "velocity": 122
            }, 
            {
                "channel": 0, 
                "deltaTime": 120, 
                "noteNumber": 39, 
                "subtype": "noteOff", 
                "type": "channel", 
                "velocity": 0
            }, 
            {
                "channel": 0, 
                "deltaTime": 120, 
                "noteNumber": 39, 
                "subtype": "noteOn", 
                "type": "channel", 
                "velocity": 125
            }, 
            {
                "channel": 0, 
                "deltaTime": 120, 
                "noteNumber": 39, 
                "subtype": "noteOff", 
                "type": "channel", 
                "velocity": 0
            }, 
            {
                "channel": 0, 
                "deltaTime": 0, 
                "noteNumber": 39, 
                "subtype": "noteOn", 
                "type": "channel", 
                "velocity": 127
            }, 
            {
                "channel": 0, 
                "deltaTime": 140, 
                "noteNumber": 39, 
                "subtype": "noteOff", 
                "type": "channel", 
                "velocity": 0
            }, 
            {
                "channel": 0, 
                "deltaTime": 1540, 
                "noteNumber": 39, 
                "subtype": "noteOn", 
                "type": "channel", 
                "velocity": 115
            }, 
            {
                "channel": 0, 
                "deltaTime": 360, 
                "noteNumber": 39, 
                "subtype": "noteOn", 
                "type": "channel", 
                "velocity": 127
            }, 
            {
                "channel": 0, 
                "deltaTime": 108, 
                "noteNumber": 39, 
                "subtype": "noteOff", 
                "type": "channel", 
                "velocity": 0
            }, 
            {
                "channel": 0, 
                "deltaTime": 360, 
                "noteNumber": 39, 
                "subtype": "noteOff", 
                "type": "channel", 
                "velocity": 0
            }, 
            {
                "channel": 0, 
                "deltaTime": 252, 
                "noteNumber": 39, 
                "subtype": "noteOn", 
                "type": "channel", 
                "velocity": 122
            }, 
            {
                "channel": 0, 
                "deltaTime": 120, 
                "noteNumber": 39, 
                "subtype": "noteOff", 
                "type": "channel", 
                "velocity": 0
            }, 
            {
                "channel": 0, 
                "deltaTime": 0, 
                "noteNumber": 39, 
                "subtype": "noteOn", 
                "type": "channel", 
                "velocity": 125
            }, 
            {
                "channel": 0, 
                "deltaTime": 120, 
                "noteNumber": 39, 
                "subtype": "noteOff", 
                "type": "channel", 
                "velocity": 0
            }, 
            {
                "channel": 0, 
                "deltaTime": 0, 
                "noteNumber": 39, 
                "subtype": "noteOn", 
                "type": "channel", 
                "velocity": 127
            }, 
            {
                "channel": 0, 
                "deltaTime": 140, 
                "noteNumber": 39, 
                "subtype": "noteOff", 
                "type": "channel", 
                "velocity": 0
            }, 
            {
                "channel": 0, 
                "deltaTime": 0, 
                "noteNumber": 39, 
                "subtype": "noteOn", 
                "type": "channel", 
                "velocity": 122
            }, 
            {
                "channel": 0, 
                "deltaTime": 120, 
                "noteNumber": 39, 
                "subtype": "noteOff", 
                "type": "channel", 
                "velocity": 0
            }, 
            {
                "channel": 0, 
                "deltaTime": 0, 
                "noteNumber": 39, 
                "subtype": "noteOn", 
                "type": "channel", 
                "velocity": 125
            }, 
            {
                "channel": 0, 
                "deltaTime": 120, 
                "noteNumber": 39, 
                "subtype": "noteOff", 
                "type": "channel", 
                "velocity": 0
            }, 
            {
                "channel": 0, 
                "deltaTime": 0, 
                "noteNumber": 39, 
                "subtype": "noteOn", 
                "type": "channel", 
                "velocity": 127
            }, 
            {
                "channel": 0, 
                "deltaTime": 140, 
                "noteNumber": 39, 
                "subtype": "noteOff", 
                "type": "channel", 
                "velocity": 0
            }, 
            {
                "channel": 0, 
                "deltaTime": 80, 
                "noteNumber": 39, 
                "subtype": "noteOn", 
                "type": "channel", 
                "velocity": 122
            }, 
            {
                "channel": 0, 
                "deltaTime": 120, 
                "noteNumber": 39, 
                "subtype": "noteOff", 
                "type": "channel", 
                "velocity": 0
            }, 
            {
                "channel": 0, 
                "deltaTime": 0, 
                "noteNumber": 39, 
                "subtype": "noteOn", 
                "type": "channel", 
                "velocity": 125
            }, 
            {
                "channel": 0, 
                "deltaTime": 120, 
                "noteNumber": 39, 
                "subtype": "noteOff", 
                "type": "channel", 
                "velocity": 0
            }, 
            {
                "channel": 0, 
                "deltaTime": 0, 
                "noteNumber": 39, 
                "subtype": "noteOn", 
                "type": "channel", 
                "velocity": 127
            }, 
            {
                "channel": 0, 
                "deltaTime": 140, 
                "noteNumber": 39, 
                "subtype": "noteOff", 
                "type": "channel", 
                "velocity": 0
            }, 
            {
                "channel": 0, 
                "deltaTime": 460, 
                "noteNumber": 39, 
                "subtype": "noteOn", 
                "type": "channel", 
                "velocity": 122
            }, 
            {
                "channel": 0, 
                "deltaTime": 480, 
                "noteNumber": 39, 
                "subtype": "noteOn", 
                "type": "channel", 
                "velocity": 127
            }, 
            {
                "channel": 0, 
                "deltaTime": 20, 
                "noteNumber": 39, 
                "subtype": "noteOff", 
                "type": "channel", 
                "velocity": 0
            }, 
            {
                "channel": 0, 
                "deltaTime": 480, 
                "noteNumber": 39, 
                "subtype": "noteOff", 
                "type": "channel", 
                "velocity": 0
            }, 
            {
                "channel": 0, 
                "deltaTime": 100, 
                "noteNumber": 39, 
                "subtype": "noteOn", 
                "type": "channel", 
                "velocity": 122
            }, 
            {
                "channel": 0, 
                "deltaTime": 120, 
                "noteNumber": 39, 
                "subtype": "noteOff", 
                "type": "channel", 
                "velocity": 0
            }, 
            {
                "channel": 0, 
                "deltaTime": 0, 
                "noteNumber": 39, 
                "subtype": "noteOn", 
                "type": "channel", 
                "velocity": 125
            }, 
            {
                "channel": 0, 
                "deltaTime": 120, 
                "noteNumber": 39, 
                "subtype": "noteOff", 
                "type": "channel", 
                "velocity": 0
            }, 
            {
                "channel": 0, 
                "deltaTime": 0, 
                "noteNumber": 39, 
                "subtype": "noteOn", 
                "type": "channel", 
                "velocity": 127
            }, 
            {
                "channel": 0, 
                "deltaTime": 140, 
                "noteNumber": 39, 
                "subtype": "noteOff", 
                "type": "channel", 
                "velocity": 0
            }, 
            {
                "channel": 0, 
                "deltaTime": 1420, 
                "noteNumber": 39, 
                "subtype": "noteOn", 
                "type": "channel", 
                "velocity": 122
            }, 
            {
                "channel": 0, 
                "deltaTime": 240, 
                "noteNumber": 39, 
                "subtype": "noteOn", 
                "type": "channel", 
                "velocity": 127
            }, 
            {
                "channel": 0, 
                "deltaTime": 20, 
                "noteNumber": 39, 
                "subtype": "noteOff", 
                "type": "channel", 
                "velocity": 0
            }, 
            {
                "channel": 0, 
                "deltaTime": 208, 
                "noteNumber": 39, 
                "subtype": "noteOff", 
                "type": "channel", 
                "velocity": 0
            }, 
            {
                "channel": 0, 
                "deltaTime": 252, 
                "noteNumber": 39, 
                "subtype": "noteOn", 
                "type": "channel", 
                "velocity": 122
            }, 
            {
                "channel": 0, 
                "deltaTime": 240, 
                "noteNumber": 39, 
                "subtype": "noteOn", 
                "type": "channel", 
                "velocity": 127
            }, 
            {
                "channel": 0, 
                "deltaTime": 20, 
                "noteNumber": 39, 
                "subtype": "noteOff", 
                "type": "channel", 
                "velocity": 0
            }, 
            {
                "channel": 0, 
                "deltaTime": 448, 
                "noteNumber": 39, 
                "subtype": "noteOff", 
                "type": "channel", 
                "velocity": 0
            }, 
            {
                "channel": 0, 
                "deltaTime": 252, 
                "noteNumber": 39, 
                "subtype": "noteOn", 
                "type": "channel", 
                "velocity": 122
            }, 
            {
                "channel": 0, 
                "deltaTime": 120, 
                "noteNumber": 39, 
                "subtype": "noteOff", 
                "type": "channel", 
                "velocity": 0
            }, 
            {
                "channel": 0, 
                "deltaTime": 0, 
                "noteNumber": 39, 
                "subtype": "noteOn", 
                "type": "channel", 
                "velocity": 125
            }, 
            {
                "channel": 0, 
                "deltaTime": 120, 
                "noteNumber": 39, 
                "subtype": "noteOff", 
                "type": "channel", 
                "velocity": 0
            }, 
            {
                "channel": 0, 
                "deltaTime": 0, 
                "noteNumber": 39, 
                "subtype": "noteOn", 
                "type": "channel", 
                "velocity": 127
            }, 
            {
                "channel": 0, 
                "deltaTime": 140, 
                "noteNumber": 39, 
                "subtype": "noteOff", 
                "type": "channel", 
                "velocity": 0
            }, 
            {
                "channel": 0, 
                "deltaTime": 0, 
                "noteNumber": 39, 
                "subtype": "noteOn", 
                "type": "channel", 
                "velocity": 122
            }, 
            {
                "channel": 0, 
                "deltaTime": 120, 
                "noteNumber": 39, 
                "subtype": "noteOff", 
                "type": "channel", 
                "velocity": 0
            }, 
            {
                "channel": 0, 
                "deltaTime": 0, 
                "noteNumber": 39, 
                "subtype": "noteOn", 
                "type": "channel", 
                "velocity": 125
            }, 
            {
                "channel": 0, 
                "deltaTime": 120, 
                "noteNumber": 39, 
                "subtype": "noteOff", 
                "type": "channel", 
                "velocity": 0
            }, 
            {
                "channel": 0, 
                "deltaTime": 0, 
                "noteNumber": 39, 
                "subtype": "noteOn", 
                "type": "channel", 
                "velocity": 127
            }, 
            {
                "channel": 0, 
                "deltaTime": 100, 
                "noteNumber": 39, 
                "subtype": "noteOn", 
                "type": "channel", 
                "velocity": 120
            }, 
            {
                "channel": 0, 
                "deltaTime": 40, 
                "noteNumber": 39, 
                "subtype": "noteOff", 
                "type": "channel", 
                "velocity": 0
            }, 
            {
                "channel": 0, 
                "deltaTime": 308, 
                "noteNumber": 39, 
                "subtype": "noteOff", 
                "type": "channel", 
                "velocity": 0
            }, 
            {
                "channel": 0, 
                "deltaTime": 12, 
                "noteNumber": 39, 
                "subtype": "noteOn", 
                "type": "channel", 
                "velocity": 126
            }, 
            {
                "channel": 0, 
                "deltaTime": 248, 
                "noteNumber": 39, 
                "subtype": "noteOff", 
                "type": "channel", 
                "velocity": 0
            }, 
            {
                "channel": 0, 
                "deltaTime": 112, 
                "noteNumber": 39, 
                "subtype": "noteOn", 
                "type": "channel", 
                "velocity": 127
            }, 
            {
                "channel": 0, 
                "deltaTime": 228, 
                "noteNumber": 39, 
                "subtype": "noteOff", 
                "type": "channel", 
                "velocity": 0
            }, 
            {
                "channel": 0, 
                "deltaTime": 252, 
                "noteNumber": 39, 
                "subtype": "noteOn", 
                "type": "channel", 
                "velocity": 126
            }, 
            {
                "channel": 0, 
                "deltaTime": 240, 
                "noteNumber": 39, 
                "subtype": "noteOn", 
                "type": "channel", 
                "velocity": 125
            }, 
            {
                "channel": 0, 
                "deltaTime": 8, 
                "noteNumber": 39, 
                "subtype": "noteOff", 
                "type": "channel", 
                "velocity": 0
            }, 
            {
                "channel": 0, 
                "deltaTime": 112, 
                "noteNumber": 39, 
                "subtype": "noteOff", 
                "type": "channel", 
                "velocity": 0
            }, 
            {
                "channel": 0, 
                "deltaTime": 0, 
                "noteNumber": 39, 
                "subtype": "noteOn", 
                "type": "channel", 
                "velocity": 127
            }, 
            {
                "channel": 0, 
                "deltaTime": 140, 
                "noteNumber": 39, 
                "subtype": "noteOff", 
                "type": "channel", 
                "velocity": 0
            }, 
            {
                "channel": 0, 
                "deltaTime": 76, 
                "noteNumber": 39, 
                "subtype": "noteOn", 
                "type": "channel", 
                "velocity": 127
            }, 
            {
                "channel": 0, 
                "deltaTime": 140, 
                "noteNumber": 39, 
                "subtype": "noteOff", 
                "type": "channel", 
                "velocity": 0
            }, 
            {
                "channel": 0, 
                "deltaTime": 484, 
                "noteNumber": 39, 
                "subtype": "noteOn", 
                "type": "channel", 
                "velocity": 126
            }, 
            {
                "channel": 0, 
                "deltaTime": 248, 
                "noteNumber": 39, 
                "subtype": "noteOff", 
                "type": "channel", 
                "velocity": 0
            }, 
            {
                "channel": 0, 
                "deltaTime": 232, 
                "noteNumber": 39, 
                "subtype": "noteOn", 
                "type": "channel", 
                "velocity": 126
            }, 
            {
                "channel": 0, 
                "deltaTime": 240, 
                "noteNumber": 39, 
                "subtype": "noteOn", 
                "type": "channel", 
                "velocity": 127
            }, 
            {
                "channel": 0, 
                "deltaTime": 8, 
                "noteNumber": 39, 
                "subtype": "noteOff", 
                "type": "channel", 
                "velocity": 0
            }, 
            {
                "channel": 0, 
                "deltaTime": 252, 
                "noteNumber": 39, 
                "subtype": "noteOff", 
                "type": "channel", 
                "velocity": 0
            }, 
            {
                "channel": 0, 
                "deltaTime": 220, 
                "noteNumber": 39, 
                "subtype": "noteOn", 
                "type": "channel", 
                "velocity": 127
            }, 
            {
                "channel": 0, 
                "deltaTime": 260, 
                "noteNumber": 39, 
                "subtype": "noteOff", 
                "type": "channel", 
                "velocity": 0
            }, 
            {
                "channel": 0, 
                "deltaTime": 940, 
                "noteNumber": 39, 
                "subtype": "noteOn", 
                "type": "channel", 
                "velocity": 127
            }, 
            {
                "channel": 0, 
                "deltaTime": 393, 
                "noteNumber": 39, 
                "subtype": "noteOff", 
                "type": "channel", 
                "velocity": 0
            }, 
            {
                "channel": 0, 
                "deltaTime": 87, 
                "noteNumber": 39, 
                "subtype": "noteOn", 
                "type": "channel", 
                "velocity": 122
            }, 
            {
                "channel": 0, 
                "deltaTime": 240, 
                "noteNumber": 39, 
                "subtype": "noteOn", 
                "type": "channel", 
                "velocity": 125
            }, 
            {
                "channel": 0, 
                "deltaTime": 20, 
                "noteNumber": 39, 
                "subtype": "noteOff", 
                "type": "channel", 
                "velocity": 0
            }, 
            {
                "channel": 0, 
                "deltaTime": 100, 
                "noteNumber": 39, 
                "subtype": "noteOff", 
                "type": "channel", 
                "velocity": 0
            }, 
            {
                "channel": 0, 
                "deltaTime": 0, 
                "noteNumber": 39, 
                "subtype": "noteOn", 
                "type": "channel", 
                "velocity": 127
            }, 
            {
                "channel": 0, 
                "deltaTime": 140, 
                "noteNumber": 39, 
                "subtype": "noteOff", 
                "type": "channel", 
                "velocity": 0
            }, 
            {
                "channel": 0, 
                "deltaTime": 1420, 
                "noteNumber": 39, 
                "subtype": "noteOn", 
                "type": "channel", 
                "velocity": 112
            }, 
            {
                "channel": 0, 
                "deltaTime": 228, 
                "noteNumber": 39, 
                "subtype": "noteOff", 
                "type": "channel", 
                "velocity": 0
            }, 
            {
                "channel": 0, 
                "deltaTime": 12, 
                "noteNumber": 39, 
                "subtype": "noteOn", 
                "type": "channel", 
                "velocity": 127
            }, 
            {
                "channel": 0, 
                "deltaTime": 228, 
                "noteNumber": 39, 
                "subtype": "noteOff", 
                "type": "channel", 
                "velocity": 0
            }, 
            {
                "channel": 0, 
                "deltaTime": 12, 
                "noteNumber": 39, 
                "subtype": "noteOn", 
                "type": "channel", 
                "velocity": 115
            }, 
            {
                "channel": 0, 
                "deltaTime": 468, 
                "noteNumber": 39, 
                "subtype": "noteOff", 
                "type": "channel", 
                "velocity": 0
            }, 
            {
                "channel": 0, 
                "deltaTime": 252, 
                "noteNumber": 39, 
                "subtype": "noteOn", 
                "type": "channel", 
                "velocity": 127
            }, 
            {
                "channel": 0, 
                "deltaTime": 753, 
                "noteNumber": 39, 
                "subtype": "noteOff", 
                "type": "channel", 
                "velocity": 0
            }, 
            {
                "channel": 0, 
                "deltaTime": 207, 
                "noteNumber": 39, 
                "subtype": "noteOn", 
                "type": "channel", 
                "velocity": 125
            }, 
            {
                "channel": 0, 
                "deltaTime": 120, 
                "noteNumber": 39, 
                "subtype": "noteOff", 
                "type": "channel", 
                "velocity": 0
            }, 
            {
                "channel": 0, 
                "deltaTime": 0, 
                "noteNumber": 39, 
                "subtype": "noteOn", 
                "type": "channel", 
                "velocity": 127
            }, 
            {
                "channel": 0, 
                "deltaTime": 140, 
                "noteNumber": 39, 
                "subtype": "noteOff", 
                "type": "channel", 
                "velocity": 0
            }, 
            {
                "deltaTime": 0, 
                "subtype": "endOfTrack", 
                "type": "meta"
            }
        ]
    ]
}